<svg id="visual" viewBox="0 0 960 540" width="960" height="540" xmlns="http://www.w3.org/2000/svg" xmlns:xlink="http://www.w3.org/1999/xlink" version="1.1"><rect x="0" y="0" width="960" height="540" fill="#181f2a"></rect><defs><linearGradient id="grad1_0" x1="43.8%" y1="100%" x2="100%" y2="0%"><stop offset="14.444444444444446%" stop-color="#ffb300" stop-opacity="1"></stop><stop offset="85.55555555555554%" stop-color="#ffb300" stop-opacity="1"></stop></linearGradient></defs><defs><linearGradient id="grad1_1" x1="43.8%" y1="100%" x2="100%" y2="0%"><stop offset="14.444444444444446%" stop-color="#ffb300" stop-opacity="1"></stop><stop offset="85.55555555555554%" stop-color="#f36953" stop-opacity="1"></stop></linearGradient></defs><defs><linearGradient id="grad1_2" x1="43.8%" y1="100%" x2="100%" y2="0%"><stop offset="14.444444444444446%" stop-color="#ab4772" stop-opacity="1"></stop><stop offset="85.55555555555554%" stop-color="#f36953" stop-opacity="1"></stop></linearGradient></defs><defs><linearGradient id="grad1_3" x1="43.8%" y1="100%" x2="100%" y2="0%"><stop offset="14.444444444444446%" stop-color="#ab4772" stop-opacity="1"></stop><stop offset="85.55555555555554%" stop-color="#503961" stop-opacity="1"></stop></linearGradient></defs><defs><linearGradient id="grad1_4" x1="43.8%" y1="100%" x2="100%" y2="0%"><stop offset="14.444444444444446%" stop-color="#181f2a" stop-opacity="1"></stop><stop offset="85.55555555555554%" stop-color="#503961" stop-opacity="1"></stop></linearGradient></defs><defs><linearGradient id="grad2_0" x1="0%" y1="100%" x2="56.3%" y2="0%"><stop offset="14.444444444444446%" stop-color="#ffb300" stop-opacity="1"></stop><stop offset="85.55555555555554%" stop-color="#ffb300" stop-opacity="1"></stop></linearGradient></defs><defs><linearGradient id="grad2_1" x1="0%" y1="100%" x2="56.3%" y2="0%"><stop offset="14.444444444444446%" stop-color="#f36953" stop-opacity="1"></stop><stop offset="85.55555555555554%" stop-color="#ffb300" stop-opacity="1"></stop></linearGradient></defs><defs><linearGradient id="grad2_2" x1="0%" y1="100%" x2="56.3%" y2="0%"><stop offset="14.444444444444446%" stop-color="#f36953" stop-opacity="1"></stop><stop offset="85.55555555555554%" stop-color="#ab4772" stop-opacity="1"></stop></linearGradient></defs><defs><linearGradient id="grad2_3" x1="0%" y1="100%" x2="56.3%" y2="0%"><stop offset="14.444444444444446%" stop-color="#503961" stop-opacity="1"></stop><stop offset="85.55555555555554%" stop-color="#ab4772" stop-opacity="1"></stop></linearGradient></defs><defs><linearGradient id="grad2_4" x1="0%" y1="100%" x2="56.3%" y2="0%"><stop offset="14.444444444444446%" stop-color="#503961" stop-opacity="1"></stop><stop offset="85.55555555555554%" stop-color="#181f2a" stop-opacity="1"></stop></linearGradient></defs><g transform="translate(960, 540)"><path d="M-378 0C-370.3 -33.1 -362.6 -66.1 -347.7 -93.2C-332.8 -120.2 -310.7 -141.3 -299.6 -173C-288.6 -204.7 -288.5 -247.1 -267.3 -267.3C-246.1 -287.5 -203.7 -285.4 -173 -299.6C-142.3 -313.9 -123.4 -344.5 -96.5 -360.3C-69.7 -376.1 -34.8 -377 0 -378L0 0Z" fill="#2d2e48"></path><path d="M-302.4 0C-296.3 -26.4 -290.1 -52.9 -278.2 -74.5C-266.3 -96.2 -248.6 -113 -239.7 -138.4C-230.9 -163.8 -230.8 -197.7 -213.8 -213.8C-196.8 -230 -162.9 -228.3 -138.4 -239.7C-113.9 -251.1 -98.7 -275.6 -77.2 -288.2C-55.7 -300.9 -27.9 -301.6 0 -302.4L0 0Z" fill="#7d4170"></path><path d="M-226.8 0C-222.2 -19.8 -217.6 -39.7 -208.6 -55.9C-199.7 -72.1 -186.4 -84.8 -179.8 -103.8C-173.1 -122.8 -173.1 -148.3 -160.4 -160.4C-147.6 -172.5 -122.2 -171.2 -103.8 -179.8C-85.4 -188.3 -74 -206.7 -57.9 -216.2C-41.8 -225.6 -20.9 -226.2 0 -226.8L0 0Z" fill="#d55368"></path><path d="M-151.2 0C-148.1 -13.2 -145.1 -26.4 -139.1 -37.3C-133.1 -48.1 -124.3 -56.5 -119.9 -69.2C-115.4 -81.9 -115.4 -98.8 -106.9 -106.9C-98.4 -115 -81.5 -114.2 -69.2 -119.9C-56.9 -125.6 -49.4 -137.8 -38.6 -144.1C-27.9 -150.4 -13.9 -150.8 0 -151.2L0 0Z" fill="#ff8b37"></path><path d="M-75.6 0C-74.1 -6.6 -72.5 -13.2 -69.5 -18.6C-66.6 -24 -62.1 -28.3 -59.9 -34.6C-57.7 -40.9 -57.7 -49.4 -53.5 -53.5C-49.2 -57.5 -40.7 -57.1 -34.6 -59.9C-28.5 -62.8 -24.7 -68.9 -19.3 -72.1C-13.9 -75.2 -7 -75.4 0 -75.6L0 0Z" fill="#ffb300"></path></g><g transform="translate(0, 0)"><path d="M378 0C377 34.2 375.9 68.5 361.3 96.8C346.6 125.1 318.3 147.5 298.8 172.5C279.3 197.5 268.5 225.1 252.4 252.4C236.4 279.8 215.1 307 188.5 326.5C161.9 346 130.1 357.8 97.8 365.1C65.5 372.4 32.8 375.2 0 378L0 0Z" fill="#2d2e48"></path><path d="M302.4 0C301.6 27.4 300.7 54.8 289 77.4C277.3 100.1 254.6 118 239 138C223.4 158 214.8 180 201.9 201.9C189.1 223.9 172.1 245.6 150.8 261.2C129.5 276.8 104.1 286.3 78.3 292.1C52.4 297.9 26.2 300.2 0 302.4L0 0Z" fill="#7d4170"></path><path d="M226.8 0C226.2 20.5 225.6 41.1 216.8 58.1C208 75.1 191 88.5 179.3 103.5C167.6 118.5 161.1 135 151.5 151.5C141.8 167.9 129 184.2 113.1 195.9C97.2 207.6 78.1 214.7 58.7 219.1C39.3 223.5 19.7 225.1 0 226.8L0 0Z" fill="#d55368"></path><path d="M151.2 0C150.8 13.7 150.4 27.4 144.5 38.7C138.6 50 127.3 59 119.5 69C111.7 79 107.4 90 101 101C94.6 111.9 86 122.8 75.4 130.6C64.8 138.4 52 143.1 39.1 146C26.2 149 13.1 150.1 0 151.2L0 0Z" fill="#ff8b37"></path><path d="M75.6 0C75.4 6.8 75.2 13.7 72.3 19.4C69.3 25 63.7 29.5 59.8 34.5C55.9 39.5 53.7 45 50.5 50.5C47.3 56 43 61.4 37.7 65.3C32.4 69.2 26 71.6 19.6 73C13.1 74.5 6.6 75 0 75.6L0 0Z" fill="#ffb300"></path></g></svg>