<svg id="visual" viewBox="0 0 900 600" width="900" height="600" xmlns="http://www.w3.org/2000/svg" xmlns:xlink="http://www.w3.org/1999/xlink" version="1.1"><path d="M0 419L21.5 417.8C43 416.7 86 414.3 128.8 419.7C171.7 425 214.3 438 257.2 433.2C300 428.3 343 405.7 385.8 395.7C428.7 385.7 471.3 388.3 514.2 388.8C557 389.3 600 387.7 642.8 382C685.7 376.3 728.3 366.7 771.2 366.3C814 366 857 375 878.5 379.5L900 384L900 601L878.5 601C857 601 814 601 771.2 601C728.3 601 685.7 601 642.8 601C600 601 557 601 514.2 601C471.3 601 428.7 601 385.8 601C343 601 300 601 257.2 601C214.3 601 171.7 601 128.8 601C86 601 43 601 21.5 601L0 601Z" fill="#ffb300"></path><path d="M0 472L21.5 462.5C43 453 86 434 128.8 432.2C171.7 430.3 214.3 445.7 257.2 447.7C300 449.7 343 438.3 385.8 430.7C428.7 423 471.3 419 514.2 417.2C557 415.3 600 415.7 642.8 421.3C685.7 427 728.3 438 771.2 444.5C814 451 857 453 878.5 454L900 455L900 601L878.5 601C857 601 814 601 771.2 601C728.3 601 685.7 601 642.8 601C600 601 557 601 514.2 601C471.3 601 428.7 601 385.8 601C343 601 300 601 257.2 601C214.3 601 171.7 601 128.8 601C86 601 43 601 21.5 601L0 601Z" fill="#e05962"></path><path d="M0 524L21.5 520.7C43 517.3 86 510.7 128.8 502.3C171.7 494 214.3 484 257.2 480.2C300 476.3 343 478.7 385.8 488C428.7 497.3 471.3 513.7 514.2 509.7C557 505.7 600 481.3 642.8 480.3C685.7 479.3 728.3 501.7 771.2 513C814 524.3 857 524.7 878.5 524.8L900 525L900 601L878.5 601C857 601 814 601 771.2 601C728.3 601 685.7 601 642.8 601C600 601 557 601 514.2 601C471.3 601 428.7 601 385.8 601C343 601 300 601 257.2 601C214.3 601 171.7 601 128.8 601C86 601 43 601 21.5 601L0 601Z" fill="#6d3f6c"></path><path d="M0 522L21.5 520C43 518 86 514 128.8 518.8C171.7 523.7 214.3 537.3 257.2 540C300 542.7 343 534.3 385.8 528.7C428.7 523 471.3 520 514.2 519.8C557 519.7 600 522.3 642.8 529.2C685.7 536 728.3 547 771.2 549.2C814 551.3 857 544.7 878.5 541.3L900 538L900 601L878.5 601C857 601 814 601 771.2 601C728.3 601 685.7 601 642.8 601C600 601 557 601 514.2 601C471.3 601 428.7 601 385.8 601C343 601 300 601 257.2 601C214.3 601 171.7 601 128.8 601C86 601 43 601 21.5 601L0 601Z" fill="#181f2a"></path></svg>