<svg id="visual" viewBox="0 0 960 540" width="960" height="540" xmlns="http://www.w3.org/2000/svg" xmlns:xlink="http://www.w3.org/1999/xlink" version="1.1"><path d="M0 318L22.8 331.5C45.7 345 91.3 372 137 371.8C182.7 371.7 228.3 344.3 274 332.7C319.7 321 365.3 325 411.2 339.3C457 353.7 503 378.3 548.8 384.7C594.7 391 640.3 379 686 373.5C731.7 368 777.3 369 823 368.5C868.7 368 914.3 366 937.2 365L960 364L960 541L937.2 541C914.3 541 868.7 541 823 541C777.3 541 731.7 541 686 541C640.3 541 594.7 541 548.8 541C503 541 457 541 411.2 541C365.3 541 319.7 541 274 541C228.3 541 182.7 541 137 541C91.3 541 45.7 541 22.8 541L0 541Z" fill="#ffb300"></path><path d="M0 436L22.8 433.3C45.7 430.7 91.3 425.3 137 420C182.7 414.7 228.3 409.3 274 400C319.7 390.7 365.3 377.3 411.2 373.3C457 369.3 503 374.7 548.8 377.5C594.7 380.3 640.3 380.7 686 387.7C731.7 394.7 777.3 408.3 823 415.2C868.7 422 914.3 422 937.2 422L960 422L960 541L937.2 541C914.3 541 868.7 541 823 541C777.3 541 731.7 541 686 541C640.3 541 594.7 541 548.8 541C503 541 457 541 411.2 541C365.3 541 319.7 541 274 541C228.3 541 182.7 541 137 541C91.3 541 45.7 541 22.8 541L0 541Z" fill="#e05962"></path><path d="M0 443L22.8 444.2C45.7 445.3 91.3 447.7 137 442.7C182.7 437.7 228.3 425.3 274 425.7C319.7 426 365.3 439 411.2 442.3C457 445.7 503 439.3 548.8 441.2C594.7 443 640.3 453 686 454.3C731.7 455.7 777.3 448.3 823 443.8C868.7 439.3 914.3 437.7 937.2 436.8L960 436L960 541L937.2 541C914.3 541 868.7 541 823 541C777.3 541 731.7 541 686 541C640.3 541 594.7 541 548.8 541C503 541 457 541 411.2 541C365.3 541 319.7 541 274 541C228.3 541 182.7 541 137 541C91.3 541 45.7 541 22.8 541L0 541Z" fill="#6d3f6c"></path><path d="M0 473L22.8 475.5C45.7 478 91.3 483 137 481.5C182.7 480 228.3 472 274 473.7C319.7 475.3 365.3 486.7 411.2 489.8C457 493 503 488 548.8 488.2C594.7 488.3 640.3 493.7 686 498C731.7 502.3 777.3 505.7 823 502.5C868.7 499.3 914.3 489.7 937.2 484.8L960 480L960 541L937.2 541C914.3 541 868.7 541 823 541C777.3 541 731.7 541 686 541C640.3 541 594.7 541 548.8 541C503 541 457 541 411.2 541C365.3 541 319.7 541 274 541C228.3 541 182.7 541 137 541C91.3 541 45.7 541 22.8 541L0 541Z" fill="#181f2a"></path></svg>