<svg xmlns="http://www.w3.org/2000/svg" xmlns:xlink="http://www.w3.org/1999/xlink" id="visual" width="900" height="600" version="1.1" viewBox="0 0 900 600"><g stroke-linejoin="bevel" stroke-width="1"><path fill="#000917" stroke="#000917" d="M426 277L472 231L439 183Z"/><path fill="#000917" stroke="#000917" d="M439 183L336 208L426 277Z"/><path fill="#0c131e" stroke="#0c131e" d="M426 277L523 274L472 231Z"/><path fill="#0f1620" stroke="#0f1620" d="M591 131L507 75L439 183Z"/><path fill="#0f1620" stroke="#0f1620" d="M439 183L368 121L336 208Z"/><path fill="#161d28" stroke="#161d28" d="M336 208L296 334L426 277Z"/><path fill="#000515" stroke="#000515" d="M426 277L518 414L523 274Z"/><path fill="#111823" stroke="#111823" d="M368 121L308 104L336 208Z"/><path fill="#000515" stroke="#000515" d="M336 208L232 229L296 334Z"/><path fill="#000" stroke="#000" d="M591 131L439 183L472 231Z"/><path fill="#000917" stroke="#000917" d="M439 183L507 75L368 121Z"/><path fill="#040d1a" stroke="#040d1a" d="M368 121L423 0L308 104Z"/><path fill="#0f1620" stroke="#0f1620" d="M296 334L389 411L426 277Z"/><path fill="#0c131e" stroke="#0c131e" d="M308 104L232 229L336 208Z"/><path fill="#040d1a" stroke="#040d1a" d="M616 193L591 131L472 231Z"/><path fill="#040d1a" stroke="#040d1a" d="M518 414L598 315L523 274Z"/><path fill="#08101c" stroke="#08101c" d="M523 274L616 193L472 231Z"/><path fill="#131a25" stroke="#131a25" d="M598 315L616 193L523 274Z"/><path fill="#111823" stroke="#111823" d="M389 411L518 414L426 277Z"/><path fill="#000515" stroke="#000515" d="M296 334L261 363L389 411Z"/><path fill="#040d1a" stroke="#040d1a" d="M213 260L261 363L296 334Z"/><path fill="#0f1620" stroke="#0f1620" d="M67 178L213 260L232 229Z"/><path fill="#0f1620" stroke="#0f1620" d="M232 229L213 260L296 334Z"/><path fill="#161d28" stroke="#161d28" d="M502 0L423 0L507 75Z"/><path fill="#000917" stroke="#000917" d="M507 75L423 0L368 121Z"/><path fill="#000917" stroke="#000917" d="M601 0L502 0L507 75Z"/><path fill="#181f2a" stroke="#181f2a" d="M316 505L429 499L389 411Z"/><path fill="#181f2a" stroke="#181f2a" d="M389 411L429 499L518 414Z"/><path fill="#181f2a" stroke="#181f2a" d="M423 0L262 0L308 104Z"/><path fill="#181f2a" stroke="#181f2a" d="M308 104L178 92L232 229Z"/><path fill="#181f2a" stroke="#181f2a" d="M262 0L178 92L308 104Z"/><path fill="#161d28" stroke="#161d28" d="M598 315L702 278L616 193Z"/><path fill="#161d28" stroke="#161d28" d="M616 193L706 186L591 131Z"/><path fill="#131a25" stroke="#131a25" d="M591 131L601 0L507 75Z"/><path fill="#131a25" stroke="#131a25" d="M703 437L702 278L598 315Z"/><path fill="#131a25" stroke="#131a25" d="M629 433L598 315L518 414Z"/><path fill="#000515" stroke="#000515" d="M702 278L706 186L616 193Z"/><path fill="#0f1620" stroke="#0f1620" d="M710 84L601 0L591 131Z"/><path fill="#0c131e" stroke="#0c131e" d="M632 474L629 433L518 414Z"/><path fill="#000" stroke="#000" d="M67 178L137 300L213 260Z"/><path fill="#000" stroke="#000" d="M213 260L137 300L261 363Z"/><path fill="#040d1a" stroke="#040d1a" d="M261 363L316 505L389 411Z"/><path fill="#000515" stroke="#000515" d="M429 499L466 522L518 414Z"/><path fill="#040d1a" stroke="#040d1a" d="M168 436L316 505L261 363Z"/><path fill="#000917" stroke="#000917" d="M429 499L421 600L466 522Z"/><path fill="#08101c" stroke="#08101c" d="M129 0L128 111L178 92Z"/><path fill="#040d1a" stroke="#040d1a" d="M178 92L128 111L232 229Z"/><path fill="#040d1a" stroke="#040d1a" d="M706 186L710 84L591 131Z"/><path fill="#161d28" stroke="#161d28" d="M466 522L632 474L518 414Z"/><path fill="#000917" stroke="#000917" d="M629 433L703 437L598 315Z"/><path fill="#111823" stroke="#111823" d="M137 300L168 436L261 363Z"/><path fill="#0f1620" stroke="#0f1620" d="M262 0L186 0L178 92Z"/><path fill="#111823" stroke="#111823" d="M632 474L703 437L629 433Z"/><path fill="#181f2a" stroke="#181f2a" d="M702 278L789 184L706 186Z"/><path fill="#111823" stroke="#111823" d="M706 186L789 184L710 84Z"/><path fill="#161d28" stroke="#161d28" d="M710 84L695 0L601 0Z"/><path fill="#000917" stroke="#000917" d="M0 181L67 178L0 102Z"/><path fill="#161d28" stroke="#161d28" d="M128 111L67 178L232 229Z"/><path fill="#111823" stroke="#111823" d="M137 300L86 414L168 436Z"/><path fill="#0f1620" stroke="#0f1620" d="M801 290L789 184L702 278Z"/><path fill="#08101c" stroke="#08101c" d="M710 84L766 75L695 0Z"/><path fill="#181f2a" stroke="#181f2a" d="M316 505L421 600L429 499Z"/><path fill="#040d1a" stroke="#040d1a" d="M466 522L560 600L632 474Z"/><path fill="#000917" stroke="#000917" d="M632 474L709 529L703 437Z"/><path fill="#0c131e" stroke="#0c131e" d="M289 600L421 600L316 505Z"/><path fill="#0c131e" stroke="#0c131e" d="M186 0L129 0L178 92Z"/><path fill="#08101c" stroke="#08101c" d="M789 184L766 75L710 84Z"/><path fill="#161d28" stroke="#161d28" d="M703 437L801 290L702 278Z"/><path fill="#161d28" stroke="#161d28" d="M421 600L515 600L466 522Z"/><path fill="#040d1a" stroke="#040d1a" d="M0 330L86 414L137 300Z"/><path fill="#181f2a" stroke="#181f2a" d="M168 436L181 529L316 505Z"/><path fill="#000515" stroke="#000515" d="M92 535L181 529L168 436Z"/><path fill="#111823" stroke="#111823" d="M181 529L289 600L316 505Z"/><path fill="#000515" stroke="#000515" d="M515 600L560 600L466 522Z"/><path fill="#040d1a" stroke="#040d1a" d="M698 600L709 529L632 474Z"/><path fill="#000917" stroke="#000917" d="M703 437L822 406L801 290Z"/><path fill="#0c131e" stroke="#0c131e" d="M0 102L67 178L128 111Z"/><path fill="#000" stroke="#000" d="M67 178L0 330L137 300Z"/><path fill="#111823" stroke="#111823" d="M99 600L202 600L181 529Z"/><path fill="#0f1620" stroke="#0f1620" d="M181 529L202 600L289 600Z"/><path fill="#161d28" stroke="#161d28" d="M0 181L0 330L67 178Z"/><path fill="#161d28" stroke="#161d28" d="M86 414L92 535L168 436Z"/><path fill="#08101c" stroke="#08101c" d="M800 521L822 406L703 437Z"/><path fill="#08101c" stroke="#08101c" d="M900 168L766 75L789 184Z"/><path fill="#0f1620" stroke="#0f1620" d="M129 0L0 102L128 111Z"/><path fill="#131a25" stroke="#131a25" d="M0 522L92 535L86 414Z"/><path fill="#131a25" stroke="#131a25" d="M900 61L822 0L766 75Z"/><path fill="#0f1620" stroke="#0f1620" d="M766 75L822 0L695 0Z"/><path fill="#181f2a" stroke="#181f2a" d="M900 261L789 184L801 290Z"/><path fill="#181f2a" stroke="#181f2a" d="M0 330L0 411L86 414Z"/><path fill="#000515" stroke="#000515" d="M709 529L800 521L703 437Z"/><path fill="#181f2a" stroke="#181f2a" d="M560 600L698 600L632 474Z"/><path fill="#08101c" stroke="#08101c" d="M770 600L800 521L709 529Z"/><path fill="#000917" stroke="#000917" d="M900 432L900 261L822 406Z"/><path fill="#131a25" stroke="#131a25" d="M822 406L900 261L801 290Z"/><path fill="#08101c" stroke="#08101c" d="M900 261L900 168L789 184Z"/><path fill="#161d28" stroke="#161d28" d="M129 0L0 0L0 102Z"/><path fill="#0c131e" stroke="#0c131e" d="M0 600L99 600L92 535Z"/><path fill="#0c131e" stroke="#0c131e" d="M92 535L99 600L181 529Z"/><path fill="#0c131e" stroke="#0c131e" d="M900 168L900 61L766 75Z"/><path fill="#08101c" stroke="#08101c" d="M698 600L770 600L709 529Z"/><path fill="#08101c" stroke="#08101c" d="M900 504L900 432L822 406Z"/><path fill="#08101c" stroke="#08101c" d="M0 411L0 522L86 414Z"/><path fill="#161d28" stroke="#161d28" d="M900 504L822 406L800 521Z"/><path fill="#161d28" stroke="#161d28" d="M900 61L900 0L822 0Z"/><path fill="#08101c" stroke="#08101c" d="M900 600L900 504L800 521Z"/><path fill="#000917" stroke="#000917" d="M0 522L0 600L92 535Z"/><path fill="#181f2a" stroke="#181f2a" d="M770 600L900 600L800 521Z"/></g></svg>