<svg xmlns="http://www.w3.org/2000/svg" xmlns:xlink="http://www.w3.org/1999/xlink" id="visual" width="960" height="540" version="1.1" viewBox="0 0 960 540"><path fill="#000" d="M0 141L87 141L87 131L175 131L175 93L262 93L262 141L349 141L349 212L436 212L436 195L524 195L524 190L611 190L611 87L698 87L698 136L785 136L785 217L873 217L873 120L960 120L960 98L960 0L960 0L873 0L873 0L785 0L785 0L698 0L698 0L611 0L611 0L524 0L524 0L436 0L436 0L349 0L349 0L262 0L262 0L175 0L175 0L87 0L87 0L0 0Z"/><path fill="#020b18" d="M0 185L87 185L87 206L175 206L175 179L262 179L262 287L349 287L349 255L436 255L436 293L524 293L524 287L611 287L611 201L698 201L698 249L785 249L785 266L873 266L873 276L960 276L960 195L960 96L960 118L873 118L873 215L785 215L785 134L698 134L698 85L611 85L611 188L524 188L524 193L436 193L436 210L349 210L349 139L262 139L262 91L175 91L175 129L87 129L87 139L0 139Z"/><path fill="#0c131e" d="M0 266L87 266L87 293L175 293L175 266L262 266L262 357L349 357L349 341L436 341L436 384L524 384L524 352L611 352L611 266L698 266L698 309L785 309L785 341L873 341L873 341L960 341L960 271L960 193L960 274L873 274L873 264L785 264L785 247L698 247L698 199L611 199L611 285L524 285L524 291L436 291L436 253L349 253L349 285L262 285L262 177L175 177L175 204L87 204L87 183L0 183Z"/><path fill="#121924" d="M0 352L87 352L87 390L175 390L175 368L262 368L262 406L349 406L349 449L436 449L436 455L524 455L524 411L611 411L611 368L698 368L698 417L785 417L785 401L873 401L873 379L960 379L960 352L960 269L960 339L873 339L873 339L785 339L785 307L698 307L698 264L611 264L611 350L524 350L524 382L436 382L436 339L349 339L349 355L262 355L262 264L175 264L175 291L87 291L87 264L0 264Z"/><path fill="#181f2a" d="M0 541L87 541L87 541L175 541L175 541L262 541L262 541L349 541L349 541L436 541L436 541L524 541L524 541L611 541L611 541L698 541L698 541L785 541L785 541L873 541L873 541L960 541L960 541L960 350L960 377L873 377L873 399L785 399L785 415L698 415L698 366L611 366L611 409L524 409L524 453L436 453L436 447L349 447L349 404L262 404L262 366L175 366L175 388L87 388L87 350L0 350Z"/></svg>