<svg id="visual" viewBox="0 0 900 600" width="900" height="600" xmlns="http://www.w3.org/2000/svg" xmlns:xlink="http://www.w3.org/1999/xlink" version="1.1"><path d="M0 253L12.5 242C25 231 50 209 75 185C100 161 125 135 150 139C175 143 200 177 225 193C250 209 275 207 300 197C325 187 350 169 375 173C400 177 425 203 450 203C475 203 500 177 525 170C550 163 575 175 600 176C625 177 650 167 675 168C700 169 725 181 750 185C775 189 800 185 825 178C850 171 875 161 887.5 156L900 151L900 0L887.5 0C875 0 850 0 825 0C800 0 775 0 750 0C725 0 700 0 675 0C650 0 625 0 600 0C575 0 550 0 525 0C500 0 475 0 450 0C425 0 400 0 375 0C350 0 325 0 300 0C275 0 250 0 225 0C200 0 175 0 150 0C125 0 100 0 75 0C50 0 25 0 12.5 0L0 0Z" fill="#354153"></path><path d="M0 307L12.5 300C25 293 50 279 75 260C100 241 125 217 150 220C175 223 200 253 225 265C250 277 275 271 300 257C325 243 350 221 375 228C400 235 425 271 450 279C475 287 500 267 525 263C550 259 575 271 600 266C625 261 650 239 675 240C700 241 725 265 750 272C775 279 800 269 825 261C850 253 875 247 887.5 244L900 241L900 149L887.5 154C875 159 850 169 825 176C800 183 775 187 750 183C725 179 700 167 675 166C650 165 625 175 600 174C575 173 550 161 525 168C500 175 475 201 450 201C425 201 400 175 375 171C350 167 325 185 300 195C275 205 250 207 225 191C200 175 175 141 150 137C125 133 100 159 75 183C50 207 25 229 12.5 240L0 251Z" fill="#26303e"></path><path d="M0 397L12.5 383C25 369 50 341 75 322C100 303 125 293 150 304C175 315 200 347 225 360C250 373 275 367 300 349C325 331 350 301 375 307C400 313 425 355 450 359C475 363 500 329 525 326C550 323 575 351 600 349C625 347 650 315 675 315C700 315 725 347 750 361C775 375 800 371 825 357C850 343 875 319 887.5 307L900 295L900 239L887.5 242C875 245 850 251 825 259C800 267 775 277 750 270C725 263 700 239 675 238C650 237 625 259 600 264C575 269 550 257 525 261C500 265 475 285 450 277C425 269 400 233 375 226C350 219 325 241 300 255C275 269 250 275 225 263C200 251 175 221 150 218C125 215 100 239 75 258C50 277 25 291 12.5 298L0 305Z" fill="#181f2a"></path><path d="M0 529L12.5 524C25 519 50 509 75 502C100 495 125 491 150 485C175 479 200 471 225 472C250 473 275 483 300 485C325 487 350 481 375 483C400 485 425 495 450 497C475 499 500 493 525 489C550 485 575 483 600 480C625 477 650 473 675 470C700 467 725 465 750 471C775 477 800 491 825 503C850 515 875 525 887.5 530L900 535L900 293L887.5 305C875 317 850 341 825 355C800 369 775 373 750 359C725 345 700 313 675 313C650 313 625 345 600 347C575 349 550 321 525 324C500 327 475 361 450 357C425 353 400 311 375 305C350 299 325 329 300 347C275 365 250 371 225 358C200 345 175 313 150 302C125 291 100 301 75 320C50 339 25 367 12.5 381L0 395Z" fill="#151c25"></path><path d="M0 601L12.5 601C25 601 50 601 75 601C100 601 125 601 150 601C175 601 200 601 225 601C250 601 275 601 300 601C325 601 350 601 375 601C400 601 425 601 450 601C475 601 500 601 525 601C550 601 575 601 600 601C625 601 650 601 675 601C700 601 725 601 750 601C775 601 800 601 825 601C850 601 875 601 887.5 601L900 601L900 533L887.5 528C875 523 850 513 825 501C800 489 775 475 750 469C725 463 700 465 675 468C650 471 625 475 600 478C575 481 550 483 525 487C500 491 475 497 450 495C425 493 400 483 375 481C350 479 325 485 300 483C275 481 250 471 225 470C200 469 175 477 150 483C125 489 100 493 75 500C50 507 25 517 12.5 522L0 527Z" fill="#131920"></path></svg>