<svg xmlns="http://www.w3.org/2000/svg" xmlns:svg="http://www.w3.org/2000/svg" id="Layer_1" width="278.672" height="360.438" x="0" y="0" enable-background="new 0 0 345.86 500" version="1.1" viewBox="0 0 278.672 360.438" xml:space="preserve"><metadata id="metadata43"/><g id="TESLA" transform="translate(-28.524,-64.797)"><g id="g8"><polyline id="polyline10" points="266.601 403.28 266.601 425.192 273.628 425.192 273.628 410.603 299.203 410.603 299.203 425.192 306.225 425.192 306.225 403.318 266.601 403.28" style="fill:#e82127;fill-opacity:1"/><path id="path12" d="m 272.845,396.192 27.02,0 c 3.753,-0.746 6.544,-4.058 7.331,-7.262 l -41.681,0 c 0.779,3.205 3.611,6.516 7.33,7.262" style="fill:#e82127;fill-opacity:1"/></g><g id="g14"><path id="path16" d="m 245.319,425.206 c 3.543,-1.502 5.449,-4.1 6.179,-7.14 l -31.517,0 0.02,-29.118 -7.065,0.02 0,36.238 32.383,0" style="fill:#e82127;fill-opacity:1"/></g><g id="g18"><path id="path20" d="m 160.398,396.094 24.954,0 c 3.762,-1.093 6.921,-3.959 7.691,-7.136 l -39.64,0 0,21.415 32.444,0 0,7.515 -25.449,0.02 c -3.988,1.112 -7.37,3.79 -9.057,7.327 l 2.062,-0.038 39.415,0 0,-21.944 -32.42,0 0,-7.159" style="fill:#e82127;fill-opacity:1"/></g><g id="g22"><path id="path24" d="m 98.795,396.163 27.011,0 c 3.758,-0.749 6.551,-4.058 7.334,-7.265 l -41.679,0 c 0.778,3.207 3.612,6.516 7.334,7.265" style="fill:#e82127;fill-opacity:1"/><path id="path26" d="m 98.795,410.485 27.011,0 c 3.758,-0.741 6.551,-4.053 7.334,-7.262 l -41.679,0 c 0.778,3.21 3.612,6.521 7.334,7.262" style="fill:#e82127;fill-opacity:1"/><path id="path28" d="m 98.795,425.202 27.011,0 c 3.758,-0.747 6.551,-4.058 7.334,-7.263 l -41.679,0 c 0.778,3.206 3.612,6.516 7.334,7.263" style="fill:#e82127;fill-opacity:1"/></g><g id="g30"><path id="path32" d="m 28.524,388.986 c 0.812,3.167 3.554,6.404 7.316,7.215 l 11.37,0 0.58,0.229 0,28.691 7.1,0 0,-28.691 0.645,-0.229 11.38,0 c 3.804,-0.98 6.487,-4.048 7.285,-7.215 l 0,-0.07 -45.676,0 0,0.07" style="fill:#e82127;fill-opacity:1"/></g></g><g id="T" transform="translate(-33.796,-64.797)"><path id="path35" d="M 173.146,317.299 208.622,117.78 c 33.815,0 44.481,3.708 46.021,18.843 0,0 22.684,-8.458 34.125,-25.636 C 244.122,90.299 199.263,89.366 199.263,89.366 l -26.176,31.882 0.059,-0.004 -26.176,-31.883 c 0,0 -44.86,0.934 -89.5,21.622 11.431,17.178 34.124,25.636 34.124,25.636 1.549,-15.136 12.202,-18.844 45.79,-18.868 l 35.762,199.548" style="fill:#e82127;fill-opacity:1"/><path id="path37" d="m 173.132,80.157 c 36.09,-0.276 77.399,5.583 119.687,24.014 5.652,-10.173 7.105,-14.669 7.105,-14.669 C 253.697,71.213 210.406,64.954 173.127,64.797 135.85,64.954 92.561,71.214 46.34,89.502 c 0,0 2.062,5.538 7.1,14.669 42.28,-18.431 83.596,-24.29 119.687,-24.014 l 0.005,0" style="fill:#e82127;fill-opacity:1"/></g></svg>