<svg xmlns="http://www.w3.org/2000/svg" xmlns:svg="http://www.w3.org/2000/svg" id="svg2816" width="400" height="60" version="1.1" xml:space="preserve"><g id="g2826" transform="matrix(1.25,0,0,-1.25,-216.6859,890.35929)"><g id="g4241" transform="matrix(1.6421798,0,0,1.6421798,-103.32106,-419.09206)"><path id="path2966" d="m 176.64273,683.06625 9.884,0 2.965,-8.236 c -1.285,0.922 -2.636,2.635 -3.295,3.294 -0.691,0.692 -1.647,0.33 -1.647,0.33 -2.306,-1.318 -0.659,-7.248 1.647,-13.837 l -9.554,0 c 2.636,5.93 3.295,10.872 2.965,12.19 0,0 -0.289,1.377 -0.988,1.647 -0.611,0.236 -1.647,-0.33 -1.647,-0.33 -1.318,-0.988 -1.977,-1.976 -3.624,-3.294 l 3.294,8.236 z" style="fill:#d21242;fill-opacity:1;fill-rule:evenodd;stroke:none"/><path id="path2974" d="m 332.14343,664.61735 -12.849,0 c 0,0.494 1.977,4.349 1.977,8.566 0,4.513 -1.977,9.422 -1.977,9.883 l 12.849,0 1.318,-5.93 c -1.219,0.033 -7.051,3.459 -8.236,2.306 -2.175,-2.076 -1.812,-4.579 3.294,-3.294 l 0,-3.624 c -0.329,0 -3.526,1.252 -3.953,0.329 -0.429,-0.955 -0.856,-4.909 1.317,-4.612 2.307,0.329 5.964,2.899 7.578,2.965 l -1.318,-6.589 z" style="fill:#d21242;fill-opacity:1;fill-rule:evenodd;stroke:none"/><path id="path2982" d="m 255.71113,664.61735 -12.849,0 c 0,0.494 1.977,4.349 1.977,8.566 0,4.513 -1.977,9.422 -1.977,9.883 l 12.849,0 1.318,-5.93 c -1.219,0.033 -7.05,3.459 -8.237,2.306 -2.173,-2.076 -1.811,-4.579 3.295,-3.294 l 0,-3.624 c -0.33,0 -3.525,1.252 -3.953,0.329 -0.429,-0.955 -0.857,-4.909 1.317,-4.612 2.306,0.329 5.964,2.899 7.578,2.965 l -1.318,-6.589 z" style="fill:#d21242;fill-opacity:1;fill-rule:evenodd;stroke:none"/><path id="path2990" d="m 290.63323,683.06625 11.86,0 c 0,-0.263 -4.612,-1.977 -4.283,-9.883 0.165,-4.547 -1.219,-6.523 -4.282,-8.237 -1.517,-0.823 -3.723,-0.758 -5.272,0.33 -0.889,0.626 -1.582,1.713 -2.306,2.965 -0.989,1.647 -3.624,2.306 -3.624,2.306 0.988,0.395 6.918,3.624 7.907,3.954 -3.954,-3.625 1.416,-5.502 2.635,-3.954 3.953,4.942 -0.659,11.201 -2.635,12.519" style="fill:#d21242;fill-opacity:1;fill-rule:evenodd;stroke:none"/><path id="path2998" d="m 354.84453,682.72535 c 0.658,-0.659 2.965,0.593 3.624,0.329 l -3.624,-6.917 c 0.099,1.285 -0.659,2.635 -0.988,2.964 -0.198,0.198 -0.659,0.989 -2.307,0.989 -1.251,0 -2.24,-0.231 -2.635,-0.989 -0.658,-1.317 0,-3.162 2.307,-3.623 1.647,-0.329 4.281,-2.306 4.281,-5.6 0,-4.381 -2.305,-5.27 -5.929,-5.27 -3.953,0 -3.293,0.329 -5.6,0.658 -0.658,-0.329 -1.976,-1.053 -2.964,-0.658 l 2.635,7.576 c 0.428,-0.033 0.791,-3.953 2.964,-3.953 0.989,0 2.701,1.35 1.648,2.635 -1.648,1.977 -1.976,0.989 -3.953,2.965 -0.594,0.593 -1.317,1.647 -1.417,3.92 -0.065,1.811 1.218,3.722 2.734,4.645 3.162,1.91 8.796,0.329 9.224,0.329" style="fill:#d21242;fill-opacity:1;fill-rule:evenodd;stroke:none"/><path id="path3006" d="m 338.04473,676.13705 0.659,2.635 c 0,0 -4.282,2.965 -1.317,5.271 0.658,0.494 2.635,0.658 3.952,-0.988 1.779,-2.24 -3.294,-6.918 -3.294,-6.918" style="fill:#d21242;fill-opacity:1;fill-rule:evenodd;stroke:none"/><path id="path3014" d="m 195.75083,680.43055 c 0,0 3.953,0.33 3.624,-2.965 -0.132,-1.383 -2.965,-2.635 -3.624,-2.635 0,0 0.33,1.35 0.33,2.635 0,1.153 -0.33,2.965 -0.33,2.965 m -6.259,2.636 12.519,0 c 1.317,-0.33 2.24,-2.438 1.977,-4.283 -0.297,-2.24 -2.965,-4.283 -2.965,-4.283 0.065,-0.461 0.889,-3.36 1.976,-5.271 1.317,-2.306 2.899,-3.69 2.965,-4.612 l -6.589,0 c 0,0.56 0.988,2.306 -0.329,5.6 -0.527,1.384 -1.648,2.306 -1.648,2.306 -0.659,0.989 -1.647,0.33 -1.647,0.33 -1.317,-0.659 -0.329,-6.26 1.318,-8.236 l -7.577,0 c 1.647,1.647 2.635,8.236 2.635,8.236 0.659,7.907 -2.635,9.291 -2.635,10.213" style="fill:#d21242;fill-opacity:1;fill-rule:evenodd;stroke:none"/><path id="path3022" d="m 215.18893,678.45405 c 1.318,-4.942 2.965,-5.271 2.306,-5.271 l -4.283,0 c 0,0 0.923,1.556 1.318,2.635 0.363,0.996 0.659,2.636 0.659,2.636 m 9.884,-13.837 -6.261,0 c 0,0.297 -0.822,3.987 -1.976,5.601 -0.725,1.021 -2.075,0.79 -2.636,0.659 -2.635,-0.659 -1.383,-5.206 -1.318,-6.26 l -6.259,0 c 0,0.593 3.031,8.368 4.282,12.519 1.319,4.283 0.66,5.502 0.66,5.93 l 7.577,0 c 0.132,-0.362 -0.362,-2.965 0.659,-5.93 1.845,-5.435 5.272,-12.519 5.272,-12.519" style="fill:#d21242;fill-opacity:1;fill-rule:evenodd;stroke:none"/><path id="path3030" d="m 232.32023,679.77185 c 0,0 4.81,-1.45 4.942,-4.942 0.131,-3.756 -2.965,-4.612 -3.954,-4.942 0,0 0,-1.317 -0.988,2.965 -0.626,2.735 0,6.919 0,6.919 m -5.601,-15.056 c 0,0 1.45,3.163 1.977,7.907 0.659,5.93 -2.24,8.467 -2.307,10.542 l 9.226,0 c 2.965,-0.988 6.226,-4.843 6.259,-8.895 0.066,-4.909 -2.965,-9.224 -6.589,-9.554 -2.24,-0.197 -6.457,0 -8.566,0" style="fill:#d21242;fill-opacity:1;fill-rule:evenodd;stroke:none"/><path id="path3038" d="m 265.59493,680.43055 c 0,0 3.953,0.33 3.623,-2.965 -0.131,-1.383 -2.965,-2.635 -3.623,-2.635 0,0 0.33,1.35 0.33,2.635 0,1.153 -0.33,2.965 -0.33,2.965 m -6.26,2.636 12.52,0 c 1.317,-0.33 2.24,-2.438 1.976,-4.283 -0.297,-2.24 -2.965,-4.283 -2.965,-4.283 0.066,-0.461 0.89,-3.36 1.977,-5.271 1.317,-2.306 2.899,-3.69 2.964,-4.612 l -6.589,0 c 0,0.56 0.989,2.306 -0.328,5.6 -0.529,1.384 -1.648,2.306 -1.648,2.306 -0.659,0.989 -1.647,0.33 -1.647,0.33 -1.318,-0.659 -0.33,-6.26 1.318,-8.236 l -7.578,0 c 1.647,1.647 2.636,8.236 2.636,8.236 0.659,7.907 -2.636,9.291 -2.636,10.213" style="fill:#d21242;fill-opacity:1;fill-rule:evenodd;stroke:none"/><path id="path3046" d="m 305.12923,673.51245 c 0,2.183 1.769,3.953 3.953,3.953 2.183,0 3.953,-1.77 3.953,-3.953 0,-2.183 -1.77,-3.954 -3.953,-3.954 -2.184,0 -3.953,1.771 -3.953,3.954 m -2.965,0.165 c 0,5.185 3.54,9.389 7.906,9.389 4.367,0 7.908,-4.204 7.908,-9.389 0,-5.186 -3.541,-9.39 -7.908,-9.39 -4.366,0 -7.906,4.204 -7.906,9.39" style="fill:#d21242;fill-opacity:1;fill-rule:evenodd;stroke:none"/></g></g></svg>