<svg height="308.95719" viewBox="0 0 44.09 42.360001" width="323.669437" xmlns="http://www.w3.org/2000/svg"><g fill-rule="evenodd" transform="translate(0 -1010.0022)"><g fill="#2e3192"><path d="m14.244784 1035.2961c-.08-.013-.25337-.053-.3065-.1067-.0265-.013-.04-.026-.0535-.04-.0666-.1464-.10662-.253-.11975-.4267 0-.5998 0-1.1993 0-1.7992.0131-.094.0266-.1868.04-.28.0266-.067.0532-.1201.0933-.1736.04-.026.08-.053.13325-.067.0535-.013.10663-.026.17325-.026h2.22625c.0535 0 .10663.014.17325.026.04.014.0801.027.13325.053.04.1598.0801.32.12013.4932 0 .1468 0 .3065.0135.4668-.32 0-.64 0-.96 0 0-.1603 0-.32 0-.4802-.3865 0-.77313 0-1.15963 0v1.7862h1.15963c0-.213 0-.4263 0-.6395h.96c0 .333 0 .733-.12013 1.053-.0801.027-.14675.067-.21337.1066-.08.013-.15975.027-.23988.053-.693 0-1.373 0-2.053 0zm3.89275 0c-.10675-.027-.20025-.053-.2935-.067 0-.014 0-.027 0-.027-.0535-.04-.0931-.08-.13312-.1201-.0266-.067-.0401-.1333-.0535-.1999 0-.8397 0-1.6795 0-2.5061h.95987c0 .7731 0 1.5597.0134 2.346h1.2395c0-.7863 0-1.5729 0-2.346h.97338c-.0135.8131-.0135 1.6264-.0135 2.4395 0 .093-.11975.32-.17325.3866-.0801.027-.15988.053-.22638.08-.7735 0-1.53325 0-2.29287.013zm3.58575 0c0-.973 0-1.9464 0-2.9194h2.666c.0535.014.10663.026.17325.04.0266.014.0535.027.0936.04.013.013.0265.04.0396.067.0135.053.04.1068.0666.1599 0 .04.0135.08.0269.1201-.0134.2133-.0134.4267-.0134.653-.0266.093-.0932.2003-.17325.2534-.0532.013-.0932.026-.13325.04.0265.014.0666.027.10663.04.04.04.0931.08.14662.1201.0131.04.0266.08.0532.1198.0134.067.0265.1332.04.2134-.0135.2132-.0135.4266-.0135.6398-.0131.027-.0265.067-.04.1068-.0531.093-.13325.1732-.22637.2264-.12013.027-.22688.054-.3335.08-.82625 0-1.65288 0-2.47925 0zm.973-.5734c0-.2398 0-.4662 0-.6931h1.0265c.04.014.0801.027.12013.04.0797.08.0666.3334.0666.4266-.0269.053-.0535.1067-.0801.1733-.04.014-.08.026-.10663.053-.3465 0-.693 0-1.0265 0zm2.33113-.213c-.0131-1.7865-.0265-3.5726-.0265-5.3588 0-.094-.0266-.2534-.0801-.3334 0-.08-.10625-.1333-.10625-.1999-.0801-.053-.20025-.2267-.30688-.2267-.0666-.067-.25337-.1198-.3465-.1468-.18675-.013-.37312-.026-.55987-.04-.0666 0-.13325.013-.19988.027-.12012.04-.27987.067-.3735.1598-.10662 0-.26637.2132-.31987.2933-.0401.1202-.0666.2534-.0933.3867v.1866 1.0531c-.0135.2534-.0135.5064-.0135.7731-.0265.1198-.0396.2399-.0531.36-.08.1464-.16012.293-.22675.4398-.0531.027-.10662.067-.15975.1066-.0666.014-.13325.027-.18675.04-1.973 0-3.94587 0-5.91875 0-.0798-.04-.14675-.08-.21338-.1067-.0796 0-.3065-.2934-.3065-.36-.0531-.1598-.10662-.3199-.15975-.4798-.0269-1.0931-.04-2.1862-.0535-3.2792-.17325 0-.46662-.1333-.58637-.2534-.0801 0-.4135-.36-.4135-.4131-.10638 0-.29313-.5865-.31963-.68-.027-.1067-.0401-.1999-.0535-.293 0-.9599-.12012-1.973.0265-2.9063 0-.053.0135-.1066.027-.1467.0531-.1733.10663-.3465.21325-.5063 0-.053.11975-.2269.15988-.2402 0-.013 0-.027 0-.027.08-.093.15975-.1868.25325-.2664.0666-.054.13325-.1068.21337-.1468.18638-.08.333-.1601.53325-.1867h.3465c.17325 0 .50638.1467.613.2534.0401.027.0801.053.13363.08.0131.013.0265.027.0531.04.04.053.0801.1066.12012.1597.0266.04.0666.08.10663.1201.0131-.1066.0266-.2001.0531-.2933.0266-.1067.0666-.2133.10675-.3065 0-.1868.25325-.4933.36-.6264.0265-.027.0531-.054.0931-.08.0535-.1201.29338-.2268.40013-.2934.0931-.04.19975-.08.30637-.1066.26688-.013.74663-.053.96.1601.10663 0 .29338.2264.39963.293.067.094.13362.1868.20025.2799 0-.04 0-.067.013-.093.0135-.054.027-.1066.0535-.1468.0533-.1066.10675-.2132.15987-.3065.0135-.027.0269-.053.0535-.08.0931-.1066.18675-.2133.29338-.3065.0397-.013.0531-.067.10625-.067.0401-.04.0936-.08.14675-.1066.13362-.08.26675-.1332.4135-.1602h.51975c.19987.067.38662.1332.54637.2668.0936 0 .18675.1598.25338.1999 0-.2534 0-.5067 0-.7597.0135-.093.0266-.1868.0401-.2799.04-.1868.17325-.3735.27987-.5201.0135-.027.0266-.04.04-.053.11975-.08.3065-.3334.46663-.3334.11987-.1198.39975-.1598.55987-.1999.0666-.014.13325-.014.19988-.014.2665 0 .55987.027.78662.1603.0797.04.15975.08.25338.1197.10625.093.21287.2001.3195.3069 0 .067.14675.2532.16025.293.0265.08.0531.1601.08.2534 0 .08.0131.1601.0266.2398v1.5332c.0531.013.10662.027.17325.053.18675.08.37312.1734.57337.2669.04.013.0796.027.11975.053.14663.1201.33338.1867.46663.32.0531 0 .14662.1066.19987.1332.08.08.17325.1601.26675.2403.0798.08.15989.1597.23989.2528 0 .067.15987.1734.18675.2669.0797.1198.15975.2399.253.3731.0801.1333.16012.2668.24025.4132.0396.1201.18637.3468.18637.4666.0135.04.0269.08.0535.1201.0531.2265.10663.4666.15975.7065.0135.1999.027.4133.0535.6265-.0265.2399-.04.4798-.0535.7196-.04.1737-.0796.3469-.10662.5203-.0265.08-.15975.3596-.15975.4797-.13325.2268-.25338.4667-.3735.7065v.027c-.13325.1733-.2665.3465-.38663.5333-.15975.1466-.3065.2934-.45312.4531-.0266.014-.0531.04-.0666.067-.0266.014-.04.027-.0531.053-.0535.027-.10663.053-.14675.093 0 .04-.46663.3065-.50663.3465-.0401.013-.0666.027-.0933.053-.0931 0-.19987.1066-.26675.1198-.11975.04-.2265.093-.33312.1467-.0535.013-.0931.026-.13325.053 0 1.4928 0 2.9859.0131 4.479-.14638 0-.293 0-.42663 0zm-2.33113-1.0265c0-.2132 0-.4135 0-.6132h.9865c.04.013.08.027.13325.054 0 .1732 0 .3465.0134.5329-.3865 0-.75962.014-1.13312.027zm-6.62662-1.8796c-.0266-.027-.0535-.04-.0666-.053-.0135-.027-.0266-.04-.0266-.053-.067 0-.12013-.3065-.16013-.3865-.0135-.053-.0266-.093-.0266-.1332-.0135-1.0532-.0135-2.1062-.0135-3.1593.0401-.013.0936-.027.14675-.027.0801-.053.22675-.08.29338-.1464.0933 0 .14675-.1466.23987-.1466.2265-.1467.43975-.5467.54638-.7866.0135-.08.0401-.1468.0666-.2134.04-.067.067-.3065.067-.4.0531 0 .0666.1336.13325.1336v.026c.0666.04.27987.28.36.28 0 .066.3865.1733.41312.1998.15975 0 .333 0 .50638.014.04-.014.08-.014.1335-.014.13325-.093.37312-.1333.49325-.2533.10662-.053.23987-.1863.32-.28.0265.1868.0666.3735.10662.5734.0131.08.0396.1733.0666.2668.11975.2798.23988.573.37313.8663.04 0 .17325.333.23987.36.0135.013.0265.04.0535.067.0265.053.0666.1067.10663.1733.10662.1197.21337.2399.33312.36.0265.04.29338.3065.33338.3065.0131.026.04.053.0666.08.0531.027.10662.053.15975.093.0666.04.13362.093.21337.1467.0135.013.0269.026.0535.053.0531.027.10663.067.17325.1067h.04c.0131.013.0266.027.0533.053.04.013.0935.027.14663.053.0535.027.10662.053.17325.094v1.2262c-.0265.1198-.0531.2399-.08.36-.0398.053-.0798.1066-.10676.1599-1.986 0-3.95888 0-5.93175 0zm9.37125-2.013c-.0134-.1597-.0134-.32-.0134-.4666-.0135-.08-.0266-.1599-.0266-.2399-.04-.1066-.0801-.2134-.10663-.32-.0401-.04-.34662-.4397-.40012-.4397-.0796-.053-.15975-.1067-.23988-.1467-.10662-.04-.21325-.08-.3065-.1201-.08-.027-.16012-.04-.22675-.053-.0931-.014-.17325-.014-.25337-.014.067-.013.14675-.013.22687-.013 0-.3735 0-.7331.0134-1.0931-.10662 0-.21325 0-.31987 0v1.1062c-.17325 0-.36 0-.52025.04-.0796.027-.15975.053-.23988.08-.0931.053-.18637.1067-.27987.1598-.0131 0-.0266 0-.0266 0-.0666.053-.13313.1066-.19975.1732-.0666.08-.13363.1603-.18675.2534-.0401.094-.0801.1868-.10663.2934-.0135.1999-.0266.4001-.0401.6134-.15975-.093-.31987-.1868-.47975-.2803-.0535-.04-.29337-.2665-.3465-.2665-.12012-.1066-.24025-.2132-.34687-.3065-.0397-.053-.0666-.093-.0933-.1332-.0531 0-.36-.4802-.4-.5202-.0266-.053-.18638-.2664-.18638-.3464-.10663-.1733-.18675-.3998-.26688-.5999-.04-.1599-.0796-.32-.10662-.4666-.0265-.1068-.04-.2134-.0531-.3065 0-.32 0-.64 0-.9465.0666-.3065.0931-.7597.2665-1.0265 0-.1333.16012-.3732.21325-.4798.0535-.08.10662-.1601.16012-.2399 0-.093.15988-.2001.15988-.2533.0134-.027.0265-.053.0535-.067.0531-.067.10662-.1202.15975-.1733 0-.067.0933-.1335.13325-.1601 0-.013 0-.027.0135-.04.04-.04.08-.08.12012-.1068.0931-.093.19975-.1732.3065-.2528.0131-.014.0265-.027.0531-.04.10663-.053.22675-.2268.36-.2268.0931-.08.32-.2399.45313-.2399 0 .067.20025.3465.29337.3465.0401.053.18675.1999.25338.1999.0666.067.2265.1066.3065.1601.21337.067.50675.093.73312.093.17325-.013.45325-.053.61338-.1467.10662 0 .19987-.1463.293-.1463.04-.054.0801-.094.13362-.1336.10663-.1197.27988-.32.31988-.4797 0-.014.0131-.027.0266-.04.0932.027.18637.067.27987.1067.15988.08.33313.1601.50638.2533.067.04.14675.08.22675.1332.0801.067.15987.1333.23987.1999.0801.067.16025.1336.25338.2132.0531 0 .17325.1603.19987.2134.0535.053.10663.1066.16013.1601.13325.1999.2665.3998.41312.5999 0 .053.10675.1599.10675.2265.10663.1733.19975.44.26638.6264.0401.2534.0936.5067.14675.7601 0 .1733 0 .3465.0134.5198 0 .3735-.0931.7866-.17325 1.1466-.0935.1864-.14663.4262-.25325.5864-.0532.093-.10675.1867-.15988.28 0 .067-.18675.2933-.21325.3198-.0801.093-.14675.1868-.21337.2934-.0135 0-.0269.013-.04.027 0 .053-.25338.2534-.29338.32-.0135 0-.0266 0-.0266 0-.0135.013-.0265.026-.0265.04-.16025.1066-.30687.2264-.45325.3465-.21325.1066-.42662.2265-.62675.3466-.0797.027-.15987.053-.2265.093zm-10.01125-2.1727c0-.014 0-.014 0-.014-.10663-.026-.19988-.053-.29338-.08-.0666-.04-.11975-.08-.17325-.1067-.23987-.1867-.54637-.5867-.54637-.9197-.0135-.027-.0266-.054-.04-.08 0-.9599 0-1.9064 0-2.8528 0-.027.0134-.04.0265-.053.0135-.054.0266-.1066.0401-.1601.0134-.067.0265-.1197.04-.1732.04-.093.0931-.1734.14662-.2534 0-.1066.2265-.293.28-.3466.08-.053.17325-.1067.26638-.1598.0401-.014.0936-.027.14675-.04.0666-.014.13325-.027.19987-.027.08 0 .17325.014.26675.027.0266.026.25338.08.25338.1198.0266.014.19987.1066.19987.1466.0531.027.0931.1332.13325.1332.0265.04.0535.08.0935.1337.17325.2665.23988.613.2665.933-.0135.8397-.0135 1.6928-.0135 2.5461-.0666.067-.10662.3065-.11975.4131-.0535.08-.0936.1599-.13325.2534-.0535 0-.17362.2399-.22675.2665-.10675.067-.21337.1332-.3065.2132-.0535.014-.10662.027-.16025.053-.11975 0-.23987.013-.3465.027zm2.78612-1.0797c0-.014 0-.014 0-.014-.32-.04-.61337-.2665-.75962-.5332-.0135-.027-.027-.04-.027-.053-.0531 0-.17325-.3335-.17325-.3866-.04-.04-.04-.1067-.04-.1602-.0131-.053-.0266-.1066-.0401-.1467 0-.8929 0-1.7861 0-2.666.0135-.053.027-.093.0401-.1331 0-.067.0134-.1603.0535-.1999.0131-.067.0265-.1336.0531-.2003.0666-.1197.14662-.2398.22675-.36.04-.053.0801-.093.13325-.1331 0-.067.19987-.1467.23987-.1734.10663-.04.21325-.067.32-.093.14663.013.29338.026.45313.053 0 .014.32.1333.32.2003.04.04.21325.1864.21325.253.0936 0 .23987.4535.26687.5466 0 .7598 0 1.5329.0131 2.306.0134.1468.0265.2934.04.4533-.0135.2001-.0666.44-.13325.6398-.0535.08-.10662.1733-.14662.2669-.0666.08-.13325.1598-.19988.2533-.0535.027-.0936.067-.13362.1067-.13325.053-.26638.1063-.3865.1598-.11988 0-.2265 0-.33313.013zm1.71963-2.6263c0-.5999 0-1.1863 0-1.7727.04-.2533.08-.5467.23987-.7466 0-.1201.29338-.36.36-.4266.19975-.1466.3865-.2133.63988-.2133.22637 0 .6265.1998.71962.4.17363.08.24025.4132.32.573-.0666.027-.13325.067-.19987.1067-.13325 0-.29338.2132-.41313.2132-.17325.1201-.3335.2399-.49325.3735-.0135 0-.0266 0-.0266 0-.0269.027-.0535.053-.08.093-.0801.067-.16012.1331-.23987.2133-.0401.04-.0801.093-.12013.1467-.15987.1066-.29337.36-.41312.5063-.0801.1201-.14675.2402-.21338.36-.0265.054-.0535.1067-.08.1732zm3.70587-1.3995c0-.014 0-.014 0-.014-.0666-.013-.12012-.027-.17325-.027-.0666-.026-.12012-.04-.17325-.053-.13362-.08-.38662-.1868-.45325-.3334-.0669-.027-.16012-.2534-.17362-.2534-.0131-.053-.0265-.1066-.0396-.1599 0-.5867 0-1.1596 0-1.733.0131-.053.0265-.093.0396-.1332 0-.067.16025-.3465.24025-.3465.0131-.027.0266-.04.0401-.053.0531-.053.11975-.093.18638-.1333.13312-.067.23987-.1332.3865-.1466.0135-.013.0266-.027.0535-.027.0401 0 .2665-.053.3065-.014h.18675c.15975.04.45325.1202.55987.2669h.0265c.0535.08.12013.1598.18675.253.0401 0 .13325.2668.13325.3069v1.7595c-.04.093-.0666.1864-.0931.2931-.0535.067-.10675.1335-.14675.2133-.04.027-.0666.053-.0935.094-.11974.053-.22649.1066-.33312.1732-.0931.013-.18675.026-.26675.053-.13325 0-.2665 0-.39975.014"/><path d="m22.980414 1024.7791.967-1.4771.967 1.4771-.967 1.4773z"/><path d="m24.908414 1025.1194 1.69862.001-.80675 1.4318-1.69875-.001.80688-1.4317z"/><path d="m22.985034 1025.1194-1.69862.001.80687 1.4318 1.69863-.001-.80688-1.4317z"/></g><path d="m28.059034 1041.2261h2.65075 5.10213.004c2.2415-.062 3.42425.4078 3.44825 1.9941.0237 1.5237-.3925 2.2582-1.193 2.4733 1.1835.1871 1.60875 1.0084 1.51512 2.2639-.0613 2.2871-1.39462 2.3873-3.7495 2.3852h-5.12687-2.65075v-2.1557-1.4563-1.8935-1.4564-2.1557zm-22.9853699-.1715h6.3144999c1.43112 0 2.60325 1.1721 2.60325 2.6029v.9787h-2.72688v-.3225c0-.4733-.38725-.8606-.86062-.8606h-4.2637499c-.47375 0-.861.3873-.861.8606v2.9725c0 .4734.38725.8607.861.8607h4.2637499c.47337 0 .86062-.3873.86062-.8607v-.4453h2.72688v.9786c0 1.4309-1.17213 2.6026-2.60325 2.6026h-6.3144999c-1.43113 0-2.60325-1.1717-2.60325-2.6026v-4.162c0-1.4308 1.17212-2.6029 2.60325-2.6029zm21.7913699.1715v6.5115c0 1.4759-1.209 2.6845-2.6855 2.6845h-6.514c-1.47612 0-2.68512-1.2086-2.68512-2.6845v-6.5115h2.89737v5.9609c0 .4886.39963.8884.88788.8884h4.39837c.48825 0 .88788-.3998.88788-.8884v-5.9609zm3.84475 2.1558v1.4563h5.12688c.83975.01.95-1.4915 0-1.4656v.01h-5.12688zm0 3.3498v1.4563h5.12688c1.0435.087 1.32275-1.5095 0-1.4648v.01h-5.12688z" fill="#ec0677"/><path d="m21.151034 1016.0576c6.46625 0 11.739 5.2729 11.739 11.7411 0 6.4663-5.27275 11.7377-11.739 11.7377-6.46475 0-11.7399999-5.2714-11.7399999-11.7377 0-6.4682 5.2752499-11.7411 11.7399999-11.7411zm0 .4756c6.20538 0 11.26425 5.0588 11.26425 11.2655 0 6.2027-5.05887 11.2614-11.26425 11.2614-6.204 0-11.2641199-5.0587-11.2641199-11.2614 0-6.2067 5.0601199-11.2655 11.2641199-11.2655" fill="#2e3192"/></g></svg>