<svg xmlns="http://www.w3.org/2000/svg" xmlns:svg="http://www.w3.org/2000/svg" id="Layer_1" width="295.324" height="108.236" x="0" y="0" version="1.1" viewBox="0 0 295.324 108.236" xml:space="preserve"><metadata id="metadata55"/><g id="g3" transform="translate(-3.198,-1.167)"><g id="g5"><g id="g7"><g id="g13"><g id="g15"><g id="g17"><polygon style="fill:#979797" id="polygon19" points="174.235 69.072 193.416 47.52 174.235 25.965 194.473 25.965 203.973 36.435 213.121 25.965 232.653 25.965 213.563 47.431 232.915 69.072 212.594 69.072 203.181 58.516 193.855 69.072"/><polygon style="fill:#979797" id="polygon21" points="174.235 16.303 152.51 16.303 152.51 25.965 174.235 25.965 174.235 40.528 152.51 40.528 152.51 53.895 174.235 53.895 174.235 69.072 136.544 69.072 136.544 1.167 174.235 1.167"/></g><path style="fill:#652c8f" id="path23" d="m 120.644,1.167 v 27.79 h -0.175 c -3.52,-4.046 -7.918,-5.452 -13.021,-5.452 -10.453,0 -18.327,7.106 -21.091,16.501 C 83.205,29.654 75.076,23.31 63.022,23.31 c -9.789,0 -17.519,4.394 -21.553,11.554 V 25.965 H 21.235 V 16.303 H 43.316 V 1.167 H 3.198 V 69.073 H 21.235 V 40.528 h 17.978 c -0.536,2.097 -0.822,4.342 -0.822,6.711 0,14.165 10.821,24.104 24.631,24.104 11.613,0 19.266,-5.453 23.314,-15.392 H 70.879 c -2.091,2.986 -3.677,3.873 -7.857,3.873 -4.847,0 -9.026,-4.229 -9.026,-9.242 H 85.47 c 1.365,11.251 10.129,20.954 22.156,20.954 5.188,0 9.938,-2.552 12.843,-6.861 h 0.175 v 4.396 h 15.9 V 1.167 h -15.9 z M 54.498,40.731 c 1.003,-4.313 4.348,-7.132 8.524,-7.132 4.597,0 7.772,2.733 8.607,7.132 0.352,0 -17.131,0 -17.131,0 z m 56.497,18.002 c -5.861,0 -9.503,-5.461 -9.503,-11.163 0,-6.095 3.168,-11.956 9.503,-11.956 6.569,0 9.186,5.861 9.186,11.956 -10e-4,5.78 -2.774,11.163 -9.186,11.163 z"/></g></g></g><g id="g25"><g id="g27"><path style="fill:#652c8f" id="path29" d="m 145.299,101.607 c 2.455,0 5.109,-1.445 5.615,-4.032 h 2.418 c -0.872,3.73 -4.101,5.846 -8.098,5.846 -7.394,0 -10.385,-5.712 -10.385,-12.566 0,-6.854 2.991,-12.568 10.385,-12.568 3.998,0 7.226,2.115 8.098,5.848 h -2.418 c -0.505,-2.59 -3.16,-4.031 -5.615,-4.031 -6.083,0 -8.132,5.543 -8.132,10.752 0,5.206 2.05,10.751 8.132,10.751 z"/><path style="fill:#652c8f" id="path31" d="m 163.414,103.421 c -5.178,0 -7.964,-3.998 -7.964,-8.905 0,-4.905 2.786,-8.904 7.964,-8.904 5.173,0 7.964,3.999 7.964,8.904 0,4.907 -2.791,8.905 -7.964,8.905 z m 0,-1.546 c 4.066,0 5.779,-3.695 5.779,-7.359 0,-3.661 -1.713,-7.359 -5.779,-7.359 -4.068,0 -5.782,3.698 -5.782,7.359 0,3.664 1.714,7.359 5.782,7.359 z"/><path style="fill:#652c8f" id="path33" d="m 182.059,87.593 c -3.39,0 -4.567,2.859 -4.567,5.813 v 9.615 h -2.05 V 91.023 c 0,-1.643 -0.034,-3.329 -0.1,-5.008 h 2.013 l 0.137,2.452 c 1.01,-1.947 2.687,-2.856 4.938,-2.856 0.303,0 0.64,0.034 0.945,0.067 v 2.051 c -0.475,-0.065 -0.843,-0.136 -1.316,-0.136 z"/><path style="fill:#652c8f" id="path35" d="m 187.729,109.403 h -2.05 V 91.089 c 0,-1.68 0,-3.395 -0.103,-5.073 h 2.017 l 0.068,2.556 c 1.276,-2.02 2.957,-2.96 5.478,-2.96 5.24,0 7.493,4.337 7.493,8.904 0,4.573 -2.253,8.905 -7.493,8.905 -2.353,0 -4.201,-0.903 -5.41,-2.854 v 8.836 z m 10.719,-14.887 c 0,-3.627 -1.514,-7.191 -5.546,-7.191 -3.795,0 -5.173,3.128 -5.173,7.191 0,4.069 1.378,7.191 5.173,7.191 4.033,0 5.546,-3.559 5.546,-7.191 z"/><path style="fill:#652c8f" id="path37" d="m 211.186,103.421 c -5.178,0 -7.964,-3.998 -7.964,-8.905 0,-4.905 2.786,-8.904 7.964,-8.904 5.172,0 7.964,3.999 7.964,8.904 -0.001,4.907 -2.793,8.905 -7.964,8.905 z m 0,-1.546 c 4.065,0 5.78,-3.695 5.78,-7.359 0,-3.661 -1.715,-7.359 -5.78,-7.359 -4.069,0 -5.782,3.698 -5.782,7.359 -0.001,3.664 1.712,7.359 5.782,7.359 z"/><path style="fill:#652c8f" id="path39" d="m 229.837,87.593 c -3.396,0 -4.57,2.859 -4.57,5.813 v 9.615 h -2.051 V 91.023 c 0,-1.643 -0.034,-3.329 -0.104,-5.008 h 2.02 l 0.135,2.452 c 1.006,-1.947 2.688,-2.856 4.938,-2.856 0.305,0 0.638,0.034 0.94,0.067 v 2.051 c -0.467,-0.065 -0.841,-0.136 -1.308,-0.136 z"/><path style="fill:#652c8f" id="path41" d="m 243.222,103.021 c -0.137,-0.81 -0.202,-1.38 -0.267,-2.287 -1.313,1.981 -3.025,2.687 -5.684,2.687 -3.091,0 -5.914,-1.577 -5.914,-5.005 0,-4.941 5.209,-5.679 9.378,-5.679 0.805,0 1.478,0.033 1.981,0.065 v -1.278 c 0,-2.886 -1.177,-4.368 -4.168,-4.368 -2.181,0 -3.727,0.841 -3.997,3.259 H 232.5 c 0.034,-3.66 3.225,-4.804 6.048,-4.804 4.203,0 6.22,1.144 6.22,5.343 v 5.779 c 0,2.624 0.099,4.169 0.404,6.288 h -1.95 z m -0.505,-8.673 c -0.572,-0.032 -1.04,-0.063 -1.613,-0.063 -2.823,0 -7.56,0.165 -7.56,4.063 0,2.353 1.948,3.526 4.102,3.526 3.427,0 5.071,-2.013 5.071,-5.944 v -1.582 z"/><path style="fill:#652c8f" id="path43" d="m 253.639,103.421 c -2.452,0 -3.596,-1.443 -3.596,-3.896 V 87.562 h -2.758 v -1.546 h 2.758 v -3.462 l 2.05,-0.906 v 4.368 h 3.765 v 1.546 h -3.765 V 98.62 c 0,2.384 0.402,3.088 2.115,3.088 0.643,0 1.446,-0.233 1.817,-0.437 v 1.751 c -0.707,0.199 -1.311,0.399 -2.386,0.399 z"/><path style="fill:#652c8f" id="path45" d="m 258.57,81.276 v -2.555 h 2.452 v 2.555 h -2.452 z m 0.201,21.745 V 86.016 h 2.05 v 17.006 h -2.05 z"/><path style="fill:#652c8f" id="path47" d="m 272.854,103.421 c -5.176,0 -7.964,-3.998 -7.964,-8.905 0,-4.905 2.788,-8.904 7.964,-8.904 5.176,0 7.964,3.999 7.964,8.904 -10e-4,4.907 -2.789,8.905 -7.964,8.905 z m 0,-1.546 c 4.066,0 5.78,-3.695 5.78,-7.359 0,-3.661 -1.714,-7.359 -5.78,-7.359 -4.065,0 -5.78,3.698 -5.78,7.359 -0.001,3.664 1.714,7.359 5.78,7.359 z"/><path style="fill:#652c8f" id="path49" d="m 286.793,86.016 0.068,2.556 c 1.179,-1.986 3.022,-2.96 5.513,-2.96 4.536,0 6.048,2.485 6.048,6.755 v 10.655 h -2.05 v -9.85 c 0,-3.158 -0.739,-5.848 -4.335,-5.848 -3.829,0 -5.106,3.396 -5.106,6.755 v 8.942 H 284.88 V 91.089 c 0,-1.68 -0.033,-3.395 -0.099,-5.073 h 2.012 z"/></g></g></g></g></svg>